<?xml version="1.0" encoding="utf-8"?> <!-- Generator: IcoMoon.io --> <!DOCTYPE svg PUBLIC "-//W3C//DTD SVG 1.1//EN" "http://www.w3.org/Graphics/SVG/1.1/DTD/svg11.dtd"> <svg width="32" height="32" viewBox="0 0 32 32" xmlns="http://www.w3.org/2000/svg" xmlns:xlink="http://www.w3.org/1999/xlink" fill="#f0a830"><g><path d="M 16,0.64c-8.483,0-15.36,6.877-15.36,15.36s 6.877,15.36, 15.36,15.36s 15.36-6.877, 15.36-15.36S 24.483,0.64, 16,0.64z M 12.24,22.366L 9.13,22.366 L 9.13,12.358 L 12.24,12.358 L 12.24,22.366 z M 10.666,11.13c-0.982,0-1.618-0.698-1.618-1.557c0-0.88, 0.654-1.555, 1.658-1.555s 1.618,0.675, 1.637,1.555 C 12.344,10.434, 11.709,11.13, 10.666,11.13z M 23.598,22.366l-3.109,0 l0-5.547 c0-1.29-0.451-2.168-1.576-2.168 c-0.859,0-1.37,0.594-1.597,1.166c-0.082,0.203-0.102,0.491-0.102,0.776l0,5.771 L 14.102,22.365 l0-6.816 c0-1.248-0.040-2.293-0.082-3.192l 2.701,0 l 0.144,1.39l 0.061,0 c 0.41-0.654, 1.413-1.616, 3.091-1.616c 2.046,0, 3.581,1.37, 3.581,4.317L 23.598,22.366 z"></path></g></svg>