<?xml version="1.0" encoding="utf-8"?> <!-- Generator: IcoMoon.io --> <!DOCTYPE svg PUBLIC "-//W3C//DTD SVG 1.1//EN" "http://www.w3.org/Graphics/SVG/1.1/DTD/svg11.dtd"> <svg width="32" height="32" viewBox="0 0 32 32" xmlns="http://www.w3.org/2000/svg" xmlns:xlink="http://www.w3.org/1999/xlink" fill="#323232"><g><path d="M 31,18l-3,0 l0,3 q0,0.406 -0.297,0.703t-0.703,0.297t-0.703-0.297t-0.297-0.703l0-3 l-3,0 q-0.406,0 -0.703-0.297t-0.297-0.703t 0.297-0.703t 0.703-0.297l 3,0 l0-3 q0-0.406 0.297-0.703t 0.703-0.297t 0.703,0.297t 0.297,0.703l0,3 l 3,0 q 0.406,0 0.703,0.297t 0.297,0.703t-0.297,0.703t-0.703,0.297zM 19,18l-3,0 l0,3 q0,0.406 -0.297,0.703t-0.703,0.297t-0.703-0.297t-0.297-0.703l0-3 l-3,0 q-0.406,0 -0.703-0.297t-0.297-0.703t 0.297-0.703t 0.703-0.297l 3,0 l0-3 q0-0.406 0.297-0.703t 0.703-0.297t 0.703,0.297t 0.297,0.703l0,3 l 3,0 q 0.406,0 0.703,0.297t 0.297,0.703t-0.297,0.703t-0.703,0.297zM 14.016,8q-0.828,0 -1.422-0.578t-0.594-1.422q0-0.594 -0.188-0.984 t-0.438-0.594t-0.797-0.297t-0.906-0.109t-1.141-0.016l-0.531,0 q-1.656,0 -2.828,1.172t-1.172,2.828l0,8 l0,8 q0,1.656 1.172,2.828t 2.828,1.172l 0.531,0 l 1.141,0 t 0.906-0.109t 0.797-0.313t 0.438-0.594t 0.188-0.984l0,0 q0-0.813 0.594-1.406t 1.422-0.594t 1.406,0.594t 0.578,1.406l0,0.125 l0,0.063 q-0.031,1.563 -0.672,2.703t-1.75,1.813t-2.484,0.984t-3.094,0.313q-3.313,0 -5.656-2.344 t-2.344-5.656l0-8 l0-8 q0-3.313 2.344-5.656t 5.656-2.344q 1.719,0 3.094,0.328t 2.484,0.984t 1.75,1.813t 0.672,2.719l0,0.063 l0,0.094 q0,0.844 -0.578,1.422t-1.406,0.578z"></path></g></svg>