<?xml version="1.0" encoding="utf-8"?> <!-- Generator: IcoMoon.io --> <!DOCTYPE svg PUBLIC "-//W3C//DTD SVG 1.1//EN" "http://www.w3.org/Graphics/SVG/1.1/DTD/svg11.dtd"> <svg width="32" height="32" viewBox="0 0 32 32" xmlns="http://www.w3.org/2000/svg" xmlns:xlink="http://www.w3.org/1999/xlink" fill="#323232"><g><path d="M 29.438,24q-0.75,0 -1.547-0.563t-1.328-1.469q 0.281,0.031 0.438,0.031q 1.25,0 2.125-0.594t 0.875-1.406q0-0.781 -0.781-1.344t-1.938-0.656q-1.281,0.875 -4.359,1.438t-6.922,0.563q-4.969,0 -8.484-0.891t-3.516-2.109q0-0.938 2.063-1.688q 0.438,1.125 3.563,1.906t 7.375,0.781q 3.531,0 6.344-0.563t 4-1.438q 0.375,0.281 0.531,0.563q 0.813-0.563 1.563-0.563q 1.063,0 1.813,1.172t 0.75,2.828 t-0.75,2.828t-1.813,1.172zM 18,9.969q0,1.031 0.313,1.844t 0.688,1.281t 0.688,1.234t 0.313,1.672q-0.156-0.094 -0.422-0.25t-0.969-0.734t-1.219-1.219t-0.953-1.672t-0.438-2.156q0-1.031 0.984-2.172t 2.328-1.938t 2.656-1.328t 2.031-0.5q-0.563,0 -1.984,0.969t-2.719,2.438t-1.297,2.531zM 12,11q0,1.094 0.5,2.344t 1,1.969l 0.5,0.719q-1.5,0 -2.75-1.594t-1.25-3.438 q0-0.813 0.625-1.641t 1.5-1.5t 1.75-1.266t 1.5-1.172t 0.625-1.016q0-0.875 -0.094-1.531t-0.516-1.5t-1.203-1.344q 1.938,0.219 2.875,1.391t 0.938,2.984q0,1 -0.625,1.781t-1.5,1.281t-1.75,0.969t-1.5,1.109t-0.625,1.453zM 16,26q 4.594,0 6.906-1q 1.094,0.469 1.094,1q0,0.813 -2.344,1.406t-5.656,0.594t-5.656-0.594t-2.344-1.406q0-0.531 1.094-1q 2.313,1 6.906,1z M 6,22q0-0.531 1.344-1q 2.906,1 8.656,1t 8.656-1q 1.344,0.469 1.344,1q0,0.813 -2.938,1.406t-7.078,0.594t-7.063-0.594t-2.922-1.406zM 4,26q0,1.094 1.609,2.016t 4.375,1.453t 6.016,0.531t 6.016-0.531t 4.375-1.453t 1.609-2.016q0-0.344 -0.188-0.688q 4.188,1.125 4.188,2.688q0,1.094 -2.141,2.016t-5.828,1.453t-8.031,0.531t-8.031-0.531 t-5.828-1.453t-2.141-2.016q0-1.563 4.188-2.688q-0.188,0.344 -0.188,0.688z"></path></g></svg>