<?xml version="1.0" encoding="utf-8"?> <!-- Generator: IcoMoon.io --> <!DOCTYPE svg PUBLIC "-//W3C//DTD SVG 1.1//EN" "http://www.w3.org/Graphics/SVG/1.1/DTD/svg11.dtd"> <svg width="32" height="32" viewBox="0 0 32 32" xmlns="http://www.w3.org/2000/svg" xmlns:xlink="http://www.w3.org/1999/xlink" fill="#323232"><g><path d="M 25.156,27.75q 0.531,1.031 0.75,1.984t 0.016,1.609t-0.922,0.656q-1.906-2.563 -3.719-5.625q-0.875-0.625 -2.656-1.578t-3.188-1.734t-3.219-2.313t-3.219-3.438q0,0.375 -0.25,0.703t-0.5,0.781t-0.25,1.203l0,0.25 q0,0.5 -0.016,0.719t-0.094,0.516t-0.297,0.406t-0.594,0.109q-0.781,0 -1.891-1.563t-1.109-2.438q0-1.688 0.594-3.797t 1.344-2.203q-1-1.813 -1.313-2.438 q-0.75-1.219 -2.031-3.125t-1.938-2.969t-0.656-1.469q0-0.813 0.578-1.406t 1.422-0.594t 1.422,0.594t 0.578,1.406q0,0.219 0.156,1q 1.438-1 3.844-1q 1.5,0 4.141,2.156t 3.859,3.844q0,0.031 0.031,0.063l 0.031,0.031q 1.719,0.281 3.531,1.141t 3.109,2.172t 1.297,2.594l0,0.031 q-0.469,0.031 -1.859-0.016t-2.109-0.047q 0.625,1.125 0.969,2.031q 0.406,1.125 0.688,2.688q 0.25,0.125 0.313,0.313 q 0.563,1.375 1.797,2.75t 2.594,2.438t 2.656,2.063t 2.125,1.969t 0.828,1.781l-1.063-0.313t-2.766-0.875t-3.016-1.063z"></path></g></svg>