<?xml version="1.0" encoding="utf-8"?> <!-- Generator: IcoMoon.io --> <!DOCTYPE svg PUBLIC "-//W3C//DTD SVG 1.1//EN" "http://www.w3.org/Graphics/SVG/1.1/DTD/svg11.dtd"> <svg width="32" height="32" viewBox="0 0 32 32" xmlns="http://www.w3.org/2000/svg" xmlns:xlink="http://www.w3.org/1999/xlink" fill="#323232"><g><path d="M 8.437,9.6L 9.6,8.437c 0.583-0.582, 1.746-0.582, 2.328,0L 16,12.509l 4.072-4.072 c 0.582-0.582, 1.746-0.582, 2.328,0L 23.563,9.6c 0.582,0.582, 0.582,1.746,0,2.328L 19.49,16l 4.073,4.072 c 0.582,0.582, 0.582,1.746,0,2.328L 22.4,23.563c-0.582,0.582-1.746,0.582-2.328,0L 16,19.491l-4.073,4.072 c-0.582,0.582-1.745,0.582-2.328,0L 8.437,22.4c-0.582-0.582-0.582-1.746,0-2.328L 12.509,16l-4.072-4.072 C 7.854,11.346, 7.854,10.182, 8.437,9.6z M0,16c0,8.837, 7.163,16, 16,16c 8.836,0, 16-7.163, 16-16S 24.836,0, 16,0C 7.163,0,0,7.163,0,16z"></path></g></svg>