<?xml version="1.0" encoding="utf-8"?> <!-- Generator: IcoMoon.io --> <!DOCTYPE svg PUBLIC "-//W3C//DTD SVG 1.1//EN" "http://www.w3.org/Graphics/SVG/1.1/DTD/svg11.dtd"> <svg width="32" height="32" viewBox="0 0 32 32" xmlns="http://www.w3.org/2000/svg" xmlns:xlink="http://www.w3.org/1999/xlink" fill="#323232"><g><path d="M 29.091,26.182l-10.039,0 C 18.97,26.623, 18.909,27.097, 18.909,27.636c0,2.909, 2.909,2.909, 2.909,2.909c 0.804,0, 1.455,0.327, 1.455,0.727 c0,0.401-0.65,0.727-1.455,0.727L 10.182,32 c-0.803,0-1.455-0.326-1.455-0.727C 8.727,30.873, 9.379,30.545, 10.182,30.545c0,0, 2.909,0, 2.909-2.909c0-0.54-0.061-1.014-0.143-1.455L 2.909,26.182 c-1.606,0-2.909-1.303-2.909-2.909L0,2.909 c0-1.606, 1.303-2.909, 2.909-2.909l 26.182,0 c 1.606,0, 2.909,1.303, 2.909,2.909l0,20.364 C 32,24.879, 30.697,26.182, 29.091,26.182z M 29.091,2.909L 2.909,2.909 l0,17.455 l 26.182,0 L 29.091,2.909 z"></path></g></svg>