<?xml version="1.0" encoding="utf-8"?> <!-- Generator: IcoMoon.io --> <!DOCTYPE svg PUBLIC "-//W3C//DTD SVG 1.1//EN" "http://www.w3.org/Graphics/SVG/1.1/DTD/svg11.dtd"> <svg width="32" height="32" viewBox="0 0 32 32" xmlns="http://www.w3.org/2000/svg" xmlns:xlink="http://www.w3.org/1999/xlink" fill="#323232"><g><path d="M 9.143,24.571l0-11.429 q0-0.232 -0.17-0.402t-0.402-0.17l-3.429,0 q-0.232,0 -0.402,0.17t-0.17,0.402l0,11.429 q0,0.232 0.17,0.402t 0.402,0.17l 3.429,0 q 0.232,0 0.402-0.17t 0.17-0.402zM 8.982,9.071q0-0.911 -0.643-1.563t-1.571-0.652q-0.911,0 -1.554,0.652t-0.643,1.563t 0.643,1.563t 1.554,0.652q 0.929,0 1.571-0.652t 0.643-1.563zM 22.857,24.571l0-7.768 q0-2.268 -1.313-3.438t-3.616-1.17q-1.607,0 -2.821,0.804q-0.214,0.143 -0.25,0.214q0-0.643 -0.625-0.643l-3.143,0 q-0.25,0 -0.527,0.134t-0.277,0.366l0,11.5 q0,0.232 0.277,0.402t 0.527,0.17l 3.25,0 q 0.214,0 0.366-0.17t 0.152-0.402l0-6.232 q0-2.5 2.036-2.5q 0.875,0 1.134,0.402t 0.259,1.313l0,7.018 q0,0.232 0.214,0.402t 0.464,0.17l 3.321,0 q 0.232,0 0.402-0.17t 0.17-0.402zM 27.429,7.429l0,17.143 q0,2.125 -1.509,3.634t-3.634,1.509l-17.143,0 q-2.125,0 -3.634-1.509t-1.509-3.634l0-17.143 q0-2.125 1.509-3.634t 3.634-1.509l 17.143,0 q 2.125,0 3.634,1.509t 1.509,3.634z"></path></g></svg>