<?xml version="1.0" encoding="utf-8"?> <!-- Generator: IcoMoon.io --> <!DOCTYPE svg PUBLIC "-//W3C//DTD SVG 1.1//EN" "http://www.w3.org/Graphics/SVG/1.1/DTD/svg11.dtd"> <svg width="32" height="32" viewBox="0 0 32 32" xmlns="http://www.w3.org/2000/svg" xmlns:xlink="http://www.w3.org/1999/xlink" fill="#323232"><g><path d="M 28,0L 4,0 C 1.792,0,0,1.792,0,4l0,24 c0,2.208, 1.792,4, 4,4l 24,0 c 2.208,0, 4-1.792, 4-4L 32,4 C 32,1.792, 30.208,0, 28,0z M 16,12c 3.684,0, 4,4, 4,4s 0.118,4-4,4c-4.116,0-4-4-4-4S 12.316,12, 16,12z M 28,26c0,1.106-0.894,2-2,2L 6,28 c-1.106,0-2-0.894-2-2L 4,16 c0-1.106, 0.894-2, 2-2l 2.284,0 C 8.116,14.642, 8,15.304, 8,16c0,4.418, 3.582,8, 8,8s 8-3.582, 8-8 c0-0.696-0.118-1.358-0.284-2L 26,14 c 1.106,0, 2,0.894, 2,2L 28,26 z M 28,8c0,1.104-0.894,2-2,2l-2,0 c-1.104,0-2-0.896-2-2L 22,6 c0-1.104, 0.896-2, 2-2l 2,0 c 1.106,0, 2,0.896, 2,2L 28,8 z"></path></g></svg>