<?xml version="1.0" encoding="utf-8"?> <!-- Generator: IcoMoon.io --> <!DOCTYPE svg PUBLIC "-//W3C//DTD SVG 1.1//EN" "http://www.w3.org/Graphics/SVG/1.1/DTD/svg11.dtd"> <svg width="32" height="32" viewBox="0 0 32 32" xmlns="http://www.w3.org/2000/svg" xmlns:xlink="http://www.w3.org/1999/xlink" fill="#323232"><g><path d="M 24.625,24.955c-0.329-1.532-2.667-3.488-6.459-4.048l0-1.393 c 1.109-1.076, 2.167-2.852, 2.167-5.357 C 20.333,11.125, 19.251,8.667, 16,8.667s-4.333,2.459-4.333,5.489c0,2.505, 1.057,4.281, 2.167,5.357l0,1.393 c-3.792,0.56-6.129,2.516-6.459,4.048L 7.333,24.955 c0,0.040, 0.015,0.084, 0.027,0.125l 0.119,0.241C 8.159,26.232, 11.244,27.333, 16,27.333 s 7.841-1.101, 8.523-2.013l 0.119-0.241c 0.012-0.041, 0.027-0.084, 0.027-0.125L 24.625,24.953 zM 31.295,19.701c-0.304-1.416-2.461-3.22-5.961-3.737L 25.333,14.68 c 1.025-0.993, 2-2.633, 2-4.945c0-2.8-1-5.068-4-5.068 c-2.504,0-3.123,0.453-3.457,2.879c 1.625,1.263, 2.515,3.475, 2.515,6.485c0,3.039-0.661,4.692-1.724,5.969 c 1.333,0, 3.124,1.732, 4.372,2.74c 4.504-0.115, 5.567-1.904, 6.161-2.7l 0.109-0.221c 0.011-0.039, 0.024-0.079, 0.024-0.116L 31.295,19.703 zM 8.667,4.667c-3,0-4,2.268-4,5.068c0,2.312, 0.975,3.952, 2,4.945l0,1.285 c-3.5,0.517-5.657,2.321-5.961,3.737L 0.667,19.703 c0,0.037, 0.013,0.077, 0.024,0.116L 0.8,20.039c 0.595,0.797, 1.659,2.585, 6.163,2.7C 8.209,21.732, 10,20, 11.333,20 c-1.064-1.277-1.724-2.929-1.724-5.969c0-3.011, 0.891-5.223, 2.516-6.485C 11.791,5.12, 11.171,4.667, 8.667,4.667z"></path></g></svg>