<?xml version="1.0" encoding="utf-8"?> <!-- Generator: IcoMoon.io --> <!DOCTYPE svg PUBLIC "-//W3C//DTD SVG 1.1//EN" "http://www.w3.org/Graphics/SVG/1.1/DTD/svg11.dtd"> <svg width="32" height="32" viewBox="0 0 32 32" xmlns="http://www.w3.org/2000/svg" xmlns:xlink="http://www.w3.org/1999/xlink" fill="#323232"><g><path d="M 26.498,5.501c-2.307-2.309-4.040-1.963-4.040-1.963L 14.373,11.622L 5.136,20.859L 3.52,28.48l 7.621-1.616l 9.237-9.237l 8.083-8.083 C 28.461,9.544, 28.808,7.811, 26.498,5.501z M 10.686,25.947l-2.597,0.56c-0.251-0.469-0.554-0.938-1.106-1.491 c-0.552-0.552-1.022-0.853-1.491-1.104l 0.562-2.598l 0.75-0.75c0,0, 1.414,0.029, 3.010,1.624c 1.597,1.597, 1.626,3.011, 1.626,3.011 L 10.686,25.947z"></path></g></svg>