<?xml version="1.0" encoding="utf-8"?> <!-- Generator: IcoMoon.io --> <!DOCTYPE svg PUBLIC "-//W3C//DTD SVG 1.1//EN" "http://www.w3.org/Graphics/SVG/1.1/DTD/svg11.dtd"> <svg width="32" height="32" viewBox="0 0 32 32" xmlns="http://www.w3.org/2000/svg" xmlns:xlink="http://www.w3.org/1999/xlink" fill="#323232"><g><path d="M 30.664,29.336L 28,29.336L 28,28L 26.664,28L 26.664,29.336L 24.004,29.336L 24.004,28L 22.668,28L 22.668,29.336L 20.004,29.336L 20.004,28L 18.668,28L 18.668,29.336L 16.004,29.336L 16.004,28L 14.668,28L 14.668,29.336L 12.004,29.336L 12.004,28L 10.668,28L 10.668,29.336L 4.8,29.336L 11.827,25.113L 15.304,14.951L 20.469,24.029L 30.479,7.352L 28.193,5.979L 20.531,18.747L 14.696,8.492L 9.617,23.329L 2.664,27.508L 2.664,0L0,0L0,32L 32,32L 32,29.336L 32,28L 30.664,28 zM 30.664,0L 32,0L 32,1.336L 30.664,1.336zM 26.664,0L 28,0L 28,1.336L 26.664,1.336zM 22.668,0L 24.004,0L 24.004,1.336L 22.668,1.336zM 18.668,0L 20.004,0L 20.004,1.336L 18.668,1.336zM 14.668,0L 16.004,0L 16.004,1.336L 14.668,1.336zM 10.668,0L 12.004,0L 12.004,1.336L 10.668,1.336zM 6.668,0L 8.004,0L 8.004,1.336L 6.668,1.336zM 2.668,0L 4.004,0L 4.004,1.336L 2.668,1.336zM 30.664,4L 32,4L 32,5.336L 30.664,5.336zM 26.664,4L 28,4L 28,5.336L 26.664,5.336zM 22.668,4L 24.004,4L 24.004,5.336L 22.668,5.336zM 18.668,4L 20.004,4L 20.004,5.336L 18.668,5.336zM 14.668,4L 16.004,4L 16.004,5.336L 14.668,5.336zM 10.668,4L 12.004,4L 12.004,5.336L 10.668,5.336zM 6.668,4L 8.004,4L 8.004,5.336L 6.668,5.336zM 2.668,4L 4.004,4L 4.004,5.336L 2.668,5.336zM 30.664,7.996L 32,7.996L 32,9.332L 30.664,9.332zM 22.668,7.996L 24.004,7.996L 24.004,9.332L 22.668,9.332zM 18.668,7.996L 20.004,7.996L 20.004,9.332L 18.668,9.332zM 10.668,7.996L 12.004,7.996L 12.004,9.332L 10.668,9.332zM 6.668,7.996L 8.004,7.996L 8.004,9.332L 6.668,9.332zM 2.668,7.996L 4.004,7.996L 4.004,9.332L 2.668,9.332zM 30.664,11.996L 32,11.996L 32,13.332L 30.664,13.332zM 18.668,11.996L 20.004,11.996L 20.004,13.332L 18.668,13.332zM 10.668,11.996L 12.004,11.996L 12.004,13.332L 10.668,13.332zM 6.668,11.996L 8.004,11.996L 8.004,13.332L 6.668,13.332zM 2.668,11.996L 4.004,11.996L 4.004,13.332L 2.668,13.332zM 30.664,15.999L 32,15.999L 32,17.335L 30.664,17.335zM 26.664,15.999L 28,15.999L 28,17.335L 26.664,17.335zM 6.668,15.999L 8.004,15.999L 8.004,17.335L 6.668,17.335zM 2.668,15.999L 4.004,15.999L 4.004,17.335L 2.668,17.335zM 30.664,19.999L 32,19.999L 32,21.335L 30.664,21.335zM 26.664,19.999L 28,19.999L 28,21.335L 26.664,21.335zM 14.668,19.999L 16.004,19.999L 16.004,21.335L 14.668,21.335zM 6.668,19.999L 8.004,19.999L 8.004,21.335L 6.668,21.335zM 2.668,19.999L 4.004,19.999L 4.004,21.335L 2.668,21.335zM 30.664,23.995L 32,23.995L 32,25.331L 30.664,25.331zM 26.664,23.995L 28,23.995L 28,25.331L 26.664,25.331zM 22.668,23.995L 24.004,23.995L 24.004,25.331L 22.668,25.331zM 14.668,23.995L 16.004,23.995L 16.004,25.331L 14.668,25.331zM 2.668,23.995L 4.004,23.995L 4.004,25.331L 2.668,25.331z"></path></g></svg>