<?xml version="1.0" encoding="utf-8"?> <!-- Generator: IcoMoon.io --> <!DOCTYPE svg PUBLIC "-//W3C//DTD SVG 1.1//EN" "http://www.w3.org/Graphics/SVG/1.1/DTD/svg11.dtd"> <svg width="34.375" height="32" viewBox="0 0 34.375 32" xmlns="http://www.w3.org/2000/svg" xmlns:xlink="http://www.w3.org/1999/xlink" fill="#323232"><g><path d="M 25.125,13.166c0-5.163-5.625-9.349-12.562-9.349C 5.624,3.817,0,8.002,0,13.166 c0,3.103, 2.031,5.852, 5.159,7.553c-0.009,0.027-2.491,4.544-2.491,4.544s 7.58-2.891, 7.601-2.903 c 0.744,0.103, 1.511,0.155, 2.294,0.155C 19.499,22.514, 25.125,18.328, 25.125,13.166z M 34.375,16.087 c0-5.162-5.295-9.311-11.028-9.348c 8.218,8.186-1.461,16.907-9.348,16.907c0,0, 0.877,1.79, 7.814,1.79 c 0.783,0, 1.551-0.054, 2.294-0.156c 0.021,0.014, 7.602,2.903, 7.602,2.903s-2.483-4.516-2.491-4.543 C 32.344,21.939, 34.375,19.189, 34.375,16.087z"></path></g></svg>