<?xml version="1.0" encoding="utf-8"?> <!-- Generator: IcoMoon.io --> <!DOCTYPE svg PUBLIC "-//W3C//DTD SVG 1.1//EN" "http://www.w3.org/Graphics/SVG/1.1/DTD/svg11.dtd"> <svg width="140.00001525878906" height="140.00001525878906" viewBox="0 0 140.00001525878906 140.00001525878906" xmlns="http://www.w3.org/2000/svg" xmlns:xlink="http://www.w3.org/1999/xlink" fill="#78c0a8"><g><path d="M 126.875,140l-4.375,0 L 122.5,96.25 l 17.5,0 l0,30.625 C 140,134.12, 134.124,140, 126.875,140z M 122.5,43.75l 4.375,0 c 7.249,0, 13.125,5.88, 13.125,13.125l0,35 l-17.5,0 L 122.5,43.75 z M 26.25,96.25l 8.868,0 L 48.125,96.25 l 4.375,0 l 8.75,0 l0,4.375 l0,4.375 c0,2.419, 1.96,4.375, 4.375,4.375l 4.375,0 l0,0l 4.375,0 c 2.419,0, 4.375-1.956, 4.375-4.375l0-4.375 l0-4.375 l 26.25,0 l 8.75,0 l0,43.75 L 26.25,140 L 26.25,96.25 z M 78.75,91.875l0-8.75 l0-4.375 c0-2.419-1.956-4.375-4.375-4.375 l-4.375,0 l0,0l-4.375,0 c-2.415,0-4.375,1.956-4.375,4.375l0,4.375 l0,8.75 l-8.75,0 l-4.375,0 L 35,91.875 L 26.25,91.875 L 26.25,43.75 l 8.75,0 L 35,32.813 C 35,14.691, 50.671,0, 70,0s 35,14.691, 35,32.813L 105,43.75 l 8.75,0 l0,48.125 l-8.75,0 L 78.75,91.875 z M 87.5,35 c0-9.664-7.836-17.5-17.5-17.5s-17.5,7.836-17.5,17.5l0,8.75 l 35,0 L 87.5,35 z M0,126.875l0-30.625 l 17.5,0 l0,43.75 L 13.125,140 C 5.876,140,0,134.12,0,126.875z M0,56.875c0-7.245, 5.876-13.125, 13.125-13.125l 4.375,0 l0,48.125 L0,91.875 L0,56.875 z"></path></g></svg>