<?xml version="1.0" encoding="utf-8"?> <!-- Generator: IcoMoon.io --> <!DOCTYPE svg PUBLIC "-//W3C//DTD SVG 1.1//EN" "http://www.w3.org/Graphics/SVG/1.1/DTD/svg11.dtd"> <svg width="512" height="512" viewBox="0 0 512 512" xmlns="http://www.w3.org/2000/svg" xmlns:xlink="http://www.w3.org/1999/xlink" fill="#dcdcdc"><path d="M 464.00,512.00l-16.00,0.00 L 448.00,352.00 l 64.00,0.00 l0.00,112.00 C 512.00,490.496, 490.512,512.00, 464.00,512.00z M 448.00,160.00l 16.00,0.00 c 26.512,0.00, 48.00,21.504, 48.00,48.00l0.00,128.00 l-64.00,0.00 L 448.00,160.00 z M 96.00,352.00l 32.432,0.00 L 176.00,352.00 l 16.00,0.00 l 32.00,0.00 l0.00,16.00 l0.00,16.00 c0.00,8.848, 7.168,16.00, 16.00,16.00l 16.00,0.00 l0.00,0.00l 16.00,0.00 c 8.848,0.00, 16.00-7.152, 16.00-16.00l0.00-16.00 l0.00-16.00 l 96.00,0.00 l 32.00,0.00 l0.00,160.00 L 96.00,512.00 L 96.00,352.00 z M 288.00,336.00l0.00-32.00 l0.00-16.00 c0.00-8.848-7.152-16.00-16.00-16.00 l-16.00,0.00 l0.00,0.00l-16.00,0.00 c-8.832,0.00-16.00,7.152-16.00,16.00l0.00,16.00 l0.00,32.00 l-32.00,0.00 l-16.00,0.00 L 128.00,336.00 L 96.00,336.00 L 96.00,160.00 l 32.00,0.00 L 128.00,120.00 C 128.00,53.728, 185.312,0.00, 256.00,0.00s 128.00,53.728, 128.00,120.00L 384.00,160.00 l 32.00,0.00 l0.00,176.00 l-32.00,0.00 L 288.00,336.00 z M 320.00,128.00 c0.00-35.344-28.656-64.00-64.00-64.00s-64.00,28.656-64.00,64.00l0.00,32.00 l 128.00,0.00 L 320.00,128.00 z M0.00,464.00l0.00-112.00 l 64.00,0.00 l0.00,160.00 L 48.00,512.00 C 21.488,512.00,0.00,490.496,0.00,464.00z M0.00,208.00c0.00-26.496, 21.488-48.00, 48.00-48.00l 16.00,0.00 l0.00,176.00 L0.00,336.00 L0.00,208.00 z" ></path></svg>