<?xml version="1.0" encoding="utf-8"?> <!-- Generator: IcoMoon.io --> <!DOCTYPE svg PUBLIC "-//W3C//DTD SVG 1.1//EN" "http://www.w3.org/Graphics/SVG/1.1/DTD/svg11.dtd"> <svg width="140.27345275878906" height="140.27345275878906" viewBox="0 0 140.27345275878906 140.27345275878906" xmlns="http://www.w3.org/2000/svg" xmlns:xlink="http://www.w3.org/1999/xlink" fill="#323232"><g><path d="M 135.625,105l-42.52-4.238q-0.957,0.137 -1.23-0.137l-87.773-87.773q-3.008-3.008 -3.828-6.904t 0.684-4.99q 1.094-1.504 4.99-0.684t 7.041,3.828l 82.578,82.715l 40.059-8.066q 1.777,0 3.076,1.299t 1.299,3.076l0,17.5 q0,1.777 -1.299,3.076t-3.076,1.299zM 65.625,122.5q 5.469,0 9.297,2.598t 3.828,6.221t-3.828,6.152t-9.297,2.529t-9.297-2.529t-3.828-6.152t 3.828-6.221t 9.297-2.598z"></path></g></svg>