<?xml version="1.0" encoding="utf-8"?> <!-- Generator: IcoMoon.io --> <!DOCTYPE svg PUBLIC "-//W3C//DTD SVG 1.1//EN" "http://www.w3.org/Graphics/SVG/1.1/DTD/svg11.dtd"> <svg width="500.00000000000006" height="500" viewBox="0 0 500 500" xmlns="http://www.w3.org/2000/svg" xmlns:xlink="http://www.w3.org/1999/xlink" fill="#323232"><path d="M 126.9,76.25c0,26.575-19.625,48.1-51.9,48.1c-30.375,0-50-21.525-50-48.1c0-27.2, 20.275-48.1, 51.275-48.1 S 126.275,49.050, 126.9,76.25z M 27.55,471.85L 27.55,162.35 L 123.75,162.35 l0,309.5 L 27.55,471.85 zM 181.325,261.075c0-38.6-1.275-70.875-2.55-98.725l 83.55,0 l 4.45,43.050l 1.9,0 c 12.65-20.275, 43.675-50, 95.575-50 c 63.275,0, 110.75,42.4, 110.75,133.55l0,182.925 l-96.2,0 l0-171.525 c0-39.875-13.95-67.1-48.75-67.1c-26.575,0-42.375,18.35-49.35,36.075 c-2.55,6.325-3.175,15.175-3.175,24.050l0,178.5 L 181.325,471.875 L 181.325,261.075 z" ></path></svg>