<?xml version="1.0" encoding="utf-8"?> <!-- Generator: IcoMoon.io --> <!DOCTYPE svg PUBLIC "-//W3C//DTD SVG 1.1//EN" "http://www.w3.org/Graphics/SVG/1.1/DTD/svg11.dtd"> <svg width="512" height="512" viewBox="0 0 512 512" xmlns="http://www.w3.org/2000/svg" xmlns:xlink="http://www.w3.org/1999/xlink" fill="#ff5c53"><path d="M 482.768,120.672l-5.024,5.024l-91.616-91.664l 5.008-5.008c0.00,0.00, 21.936-29.008, 53.136-29.008 c 13.744,0.00, 29.312,5.648, 45.584,21.92C 543.52,75.60, 482.768,120.672, 482.768,120.672z M 447.664,155.792L 135.744,467.856l0.00,0.016 l-0.032,0.016L 135.68,467.888 L0.00,512.00 l 44.096-135.744l0.00,0.00 l0.00-0.016l0.00-0.048l 0.032,0.00 L 356.064,64.112l 4.032,4.048 M 44.16,467.824l 67.792-19.504l-46.304-49.312L 44.16,467.824z" ></path></svg>