<?xml version="1.0" encoding="utf-8"?> <!-- Generator: IcoMoon.io --> <!DOCTYPE svg PUBLIC "-//W3C//DTD SVG 1.1//EN" "http://www.w3.org/Graphics/SVG/1.1/DTD/svg11.dtd"> <svg width="140" height="140" viewBox="0 0 140 140" xmlns="http://www.w3.org/2000/svg" xmlns:xlink="http://www.w3.org/1999/xlink" fill="#fcebb6"><g><path d="M 85.152,96.077c-3.023-0.481-3.092-8.793-3.092-8.793s 8.882-8.793, 10.818-20.617 c 5.208,0, 8.424-12.571, 3.216-16.994C 96.312,45.017, 102.788,13.125, 70,13.125c-32.788,0-26.312,31.892-26.095,36.548 c-5.208,4.423-1.992,16.994, 3.216,16.994c 1.936,11.824, 10.818,20.617, 10.818,20.617s-0.069,8.312-3.092,8.793 C 45.111,97.626, 8.75,113.664, 8.75,131.25l 61.25,0 l 61.25,0 C 131.25,113.664, 94.889,97.626, 85.152,96.077z"></path></g></svg>