<?xml version="1.0" encoding="utf-8"?> <!-- Generator: IcoMoon.io --> <!DOCTYPE svg PUBLIC "-//W3C//DTD SVG 1.1//EN" "http://www.w3.org/Graphics/SVG/1.1/DTD/svg11.dtd"> <svg width="140.9789276123047" height="140.9786376953125" viewBox="0 0 140.9789276123047 140.9786376953125" xmlns="http://www.w3.org/2000/svg" xmlns:xlink="http://www.w3.org/1999/xlink" fill="#f07818"><g><path d="M 137.12,111.819l-62.966-53.971C 77.086,52.338, 78.75,46.052, 78.75,39.375C 78.75,17.629, 61.121,0, 39.375,0 c-3.978,0-7.816,0.592-11.436,1.689l 22.749,22.749c 3.403,3.403, 3.403,8.971,0,12.374l-13.876,13.876 c-3.403,3.403-8.971,3.403-12.374,0L 1.689,27.939C 0.592,31.559,0,35.397,0,39.375c0,21.746, 17.629,39.375, 39.375,39.375 c 6.677,0, 12.963-1.664, 18.473-4.596l 53.971,62.966c 3.132,3.654, 8.479,3.859, 11.881,0.456l 13.876-13.876 C 140.979,120.297, 140.774,114.951, 137.12,111.819z"></path></g></svg>